<?xml version="1.0" encoding="UTF-8"?>
<svg version="1.1" xmlns="http://www.w3.org/2000/svg" width="720" height="202">
<path d="M0 0 C237.6 0 475.2 0 720 0 C720 66.66 720 133.32 720 202 C482.4 202 244.8 202 0 202 C0 135.34 0 68.68 0 0 Z " fill="#FDFEFD" transform="translate(0,0)"/>
<path d="M0 0 C2.96278513 1.8109608 5.4214584 3.84291681 7 7 C8.28588926 20.34841734 6.51758086 33.21286247 3.3671875 46.15673828 C2.90231667 48.17711868 2.90231667 48.17711868 3 51 C3.51949219 49.92621094 4.03898437 48.85242187 4.57421875 47.74609375 C5.2783165 46.30973435 5.98276225 44.8735455 6.6875 43.4375 C7.02716797 42.73302734 7.36683594 42.02855469 7.71679688 41.30273438 C10.08803592 36.49377295 12.82198303 32.31680639 16 28 C16.598125 26.88625 17.19625 25.7725 17.8125 24.625 C20.76406118 19.30251263 25.12063313 12.95978896 31 11 C31.42539063 10.49339844 31.85078125 9.98679687 32.2890625 9.46484375 C34.86740464 7.25735904 37.03918468 7.56631672 40.375 7.5625 C41.49648437 7.54316406 42.61796875 7.52382812 43.7734375 7.50390625 C47.61578243 8.09467841 49.24691787 9.31199072 52 12 C56.10004455 20.2000891 52.41399533 32.54915816 49.75830078 40.91210938 C47.69625674 46.58970134 44.78414572 51.87410934 41.93310547 57.18408203 C39.25009496 61.92222741 39.25009496 61.92222741 38 67 C38.75023437 66.154375 39.50046875 65.30875 40.2734375 64.4375 C58.61006284 44.01257862 58.61006284 44.01257862 70.625 42.5625 C74.60606583 43.07856409 76.19134168 44.19134168 79 47 C80.3860015 49.77200299 80.20728063 52.09390556 80.25 55.1875 C80.28867187 56.84845703 80.28867187 56.84845703 80.328125 58.54296875 C79.68654017 65.30252323 75.95986876 71.2053869 72.8125 77.125 C72.42392822 77.858396 72.03535645 78.59179199 71.63500977 79.34741211 C68.03083103 86.07613713 64.1062434 92.56651238 60 99 C60.66 99 61.32 99 62 99 C62.23074219 98.42378906 62.46148437 97.84757812 62.69921875 97.25390625 C64.32858746 94.43064575 66.24445873 92.93572102 68.8125 90.9375 C69.66457031 90.26589844 70.51664063 89.59429687 71.39453125 88.90234375 C75.30747304 86.04536826 78.62340426 83.68924558 83.5 83.0625 C84.2321875 82.95035156 84.964375 82.83820313 85.71875 82.72265625 C89.24640464 83.15153207 90.65166292 84.36169434 93 87 C93.43239801 89.99050094 93.56822016 92.34694655 93.4375 95.3125 C93.42879883 96.41368164 93.42879883 96.41368164 93.41992188 97.53710938 C93.25237967 105.08991183 90.85876118 111.69421663 88.0625 118.625 C87.81048828 119.26695313 87.55847656 119.90890625 87.29882812 120.5703125 C85.48577874 125.09598053 83.44135293 129.15506826 80.4375 133 C78.83539058 135.2290218 77.929319 137.42650122 77 140 C76.34 140 75.68 140 75 140 C74.77570313 140.69351563 74.55140625 141.38703125 74.3203125 142.1015625 C72.6925056 145.67503209 70.42228713 148.43287475 67.875 151.375 C67.38290039 151.94935791 66.89080078 152.52371582 66.38378906 153.11547852 C62.56908089 157.49792547 58.51154125 161.3380347 54 165 C53.48695313 165.47308594 52.97390625 165.94617188 52.4453125 166.43359375 C44.02361183 174.16396078 33.83338714 180.38213377 23 184 C22.01 184.37125 21.02 184.7425 20 185.125 C4.88562767 189.5333586 -14.12736779 190.69981372 -29 185 C-29.60714844 184.7848877 -30.21429688 184.56977539 -30.83984375 184.34814453 C-45.24884167 179.17649396 -55.15365654 171.50435987 -62.6953125 157.921875 C-65.74023701 151.10270275 -66.3388943 145.0409516 -66.3125 137.6875 C-66.32861328 136.80126953 -66.34472656 135.91503906 -66.36132812 135.00195312 C-66.36935654 123.99498964 -63.2143267 115.3393679 -56 107 C-47.20070897 98.47093672 -36.84626383 93.26472368 -24.54296875 93.32617188 C-23.37378906 93.36291016 -22.20460937 93.39964844 -21 93.4375 C-19.79988281 93.43943359 -18.59976563 93.44136719 -17.36328125 93.44335938 C-8.06152924 93.58397937 -8.06152924 93.58397937 -4 97 C-3.01 97.33 -2.02 97.66 -1 98 C-1 98.66 -1 99.32 -1 100 C-0.2575 100.08507812 0.485 100.17015625 1.25 100.2578125 C7.10439141 101.83783291 10.68646183 107.71825188 13.58984375 112.76171875 C15.60494547 116.94962579 17.14918044 120.51313868 17.25 125.1875 C18.27103472 130.37775981 20.93149545 132.12913088 24.96875 135.3359375 C27.65567388 137.53714822 27.94349555 138.46885815 28.3125 141.9375 C28 145 28 145 26.375 146.875 C23.22475573 148.36722097 21.45775723 148.55324116 18 148 C15.73216487 146.51559883 13.97829728 144.88409265 12 143 C11.77054687 143.75796875 11.54109375 144.5159375 11.3046875 145.296875 C9.71819923 148.58385069 8.27414394 149.47451825 5.125 151.25 C4.26132813 151.75015625 3.39765625 152.2503125 2.5078125 152.765625 C-4.97889649 156.45067179 -14.87969428 156.05988661 -23 155 C-28.68780674 152.66556595 -32.29377613 148.14304397 -35.1875 142.8125 C-36.68946091 137.61340455 -36.64559502 132.86505228 -34.875 127.75 C-31.57150656 122.90487628 -27.58209376 119.74879581 -22 118 C-19.34934967 117.81006931 -16.83289012 117.71535504 -14.1875 117.75 C-13.47916016 117.75386719 -12.77082031 117.75773437 -12.04101562 117.76171875 C-7.04273155 117.84448702 -2.72607773 118.42464076 2 120 C0.51751798 116.26908692 -1.48828095 114.59076134 -4.75 112.3125 C-6.01070312 111.40951172 -6.01070312 111.40951172 -7.296875 110.48828125 C-13.93382997 106.83411962 -22.6456119 107.20366498 -30 108 C-37.71770333 110.34575206 -42.86292463 113.85414254 -46.9140625 120.8515625 C-47.27242187 121.56054688 -47.63078125 122.26953125 -48 123 C-48.37125 123.58136719 -48.7425 124.16273438 -49.125 124.76171875 C-50.45695068 128.16889617 -50.38283904 131.57958263 -50.375 135.1875 C-50.37258301 136.32989136 -50.37258301 136.32989136 -50.37011719 137.49536133 C-50.24107913 143.41782868 -49.21617458 147.94916912 -46 153 C-45.360625 154.0725 -44.72125 155.145 -44.0625 156.25 C-37.84653562 164.5379525 -29.18163219 169.88509426 -19 172 C-2.92123447 173.78619312 12.94158495 172.26582737 27 164 C27.83144531 163.69320312 28.66289062 163.38640625 29.51953125 163.0703125 C33.02471528 161.55783939 35.73341901 159.26369063 38.6875 156.875 C44.73760331 152 44.73760331 152 47 152 C47.2475 151.38125 47.495 150.7625 47.75 150.125 C49.23740369 147.59641373 50.43678009 147.28160996 53 146 C53.28617187 145.42121094 53.57234375 144.84242188 53.8671875 144.24609375 C55.26779872 141.46901979 57.09289078 139.41677288 59.125 137.0625 C64.10150006 131.07152882 68.0452149 124.69142963 72 118 C72.56976563 117.11054687 73.13953125 116.22109375 73.7265625 115.3046875 C77.26960667 109.73704667 79.4441153 104.41461234 81 98 C77.78160838 99.70977055 75.13070266 101.70167986 72.4375 104.125 C54.12821987 120.48500316 54.12821987 120.48500316 46.3125 120.3125 C45.54550781 120.30863281 44.77851563 120.30476563 43.98828125 120.30078125 C42 120 42 120 40 118 C38.16282587 105.50294344 44.43198248 96.97980873 51 87 C52.60951691 84.50342746 54.21029959 82.00127224 55.8125 79.5 C57.85471331 76.31937776 59.90324551 73.14513174 62 70 C62.66 70 63.32 70 64 70 C64.185625 68.8553125 64.185625 68.8553125 64.375 67.6875 C65 65 65 65 67 62 C67.38499891 60.34450469 67.72793135 58.6777567 68 57 C62.50543642 59.63739052 59.64083954 62.31731489 56.26171875 67.390625 C55.63716797 68.18726562 55.63716797 68.18726562 55 69 C54.34 69 53.68 69 53 69 C53 69.66 53 70.32 53 71 C52.34 71 51.68 71 51 71 C50.34 72.65 49.68 74.3 49 76 C48.34 76 47.68 76 47 76 C46.73445313 76.58007812 46.46890625 77.16015625 46.1953125 77.7578125 C42.50065776 84.68830864 36.39021775 89.65411038 30 94 C29.13375 94.61875 28.2675 95.2375 27.375 95.875 C24.32630295 97.31911966 22.33096272 97.50688563 19 97 C16.76466195 95.28624083 16.15575332 93.90952246 15.68359375 91.15234375 C15.29706128 84.28204082 17.65038724 78.35424474 20 72 C20.33 71.00097656 20.66 70.00195312 21 68.97265625 C21.95138393 66.14451887 23.00416096 63.38973629 24.125 60.625 C24.47820312 59.75101563 24.83140625 58.87703125 25.1953125 57.9765625 C25.46085937 57.32429688 25.72640625 56.67203125 26 56 C26.66 56 27.32 56 28 56 C28.268125 55.01 28.53625 54.02 28.8125 53 C29.976839 48.90387216 31.46711578 44.97156367 33 41 C33.66 41 34.32 41 35 41 C36.42635741 34.68327435 37.75297849 28.35450323 39 22 C33.02154405 25.3931777 30.72664109 28.1990723 27.75 34.4375 C24.99018928 40.1211507 21.98521928 45.57723307 18.7421875 51.00390625 C16.92964397 54.12099344 15.27841154 57.29603893 13.625 60.5 C8.87195197 69.39727867 2.87630523 78.55575027 -5 85 C-7.6875 85.625 -7.6875 85.625 -10 85 C-12.7097628 82.53836006 -13.22002784 80.42212825 -13.3984375 76.90234375 C-13.41088683 75.24742422 -13.40179373 73.59224945 -13.375 71.9375 C-13.36774902 71.06005127 -13.36049805 70.18260254 -13.35302734 69.27856445 C-13.14147323 58.98691658 -11.91840752 48.50460051 -9 38.609375 C-7.71466059 33.97010305 -7.04681911 29.32350382 -6.375 24.5625 C-6.2409375 23.64017578 -6.106875 22.71785156 -5.96875 21.76757812 C-5.64155919 19.5122986 -5.31875049 17.25648518 -5 15 C-5.99 15 -6.98 15 -8 15 C-8.28447998 15.57242432 -8.56895996 16.14484863 -8.86206055 16.73461914 C-9.5868636 18.17753859 -10.32048754 19.61608498 -11.06567383 21.04858398 C-17.83943688 34.09043238 -22.22280507 46.5732032 -25 61 C-25.66 61 -26.32 61 -27 61 C-27.05534912 61.56509277 -27.11069824 62.13018555 -27.16772461 62.71240234 C-27.42024372 65.26702332 -27.67879723 67.82099815 -27.9375 70.375 C-28.02451172 71.26445313 -28.11152344 72.15390625 -28.20117188 73.0703125 C-28.28818359 73.92109375 -28.37519531 74.771875 -28.46484375 75.6484375 C-28.543396 76.43395996 -28.62194824 77.21948242 -28.70288086 78.02880859 C-29 80 -29 80 -30 82 C-30.66 82 -31.32 82 -32 82 C-32 82.66 -32 83.32 -32 84 C-35.20229442 85.60114721 -38.52500237 85.48323075 -42 85 C-44 83.5625 -44 83.5625 -45 81 C-46.22432565 71.97059832 -42.73995619 63.48640127 -40 55 C-39.50245188 53.41671451 -39.00505654 51.83338101 -38.5078125 50.25 C-36.21028091 43.04315544 -33.88717006 36.02162333 -30.265625 29.3515625 C-29.33834542 27.62865414 -28.48331712 25.86633698 -27.671875 24.0859375 C-22.97006306 13.88145553 -13.15434966 -2.39169994 0 0 Z " fill="#6EC37C" transform="translate(103,6)"/>
<path d="M0 0 C0.8381424 -0.0033284 1.67628479 -0.0066568 2.53982544 -0.01008606 C4.32374522 -0.01516394 6.10767456 -0.01749412 7.89160156 -0.01733398 C10.58675553 -0.01949433 13.2814825 -0.03756699 15.9765625 -0.05664062 C40.95217768 -0.13969279 40.95217768 -0.13969279 47.7578125 6.16796875 C51.36039073 11.04669538 52.41605124 15.83808951 52.140625 21.8515625 C51.55289003 25.40795878 50.06571312 27.43492854 47.7578125 30.16796875 C47.03464844 31.06515625 47.03464844 31.06515625 46.296875 31.98046875 C43.70537479 35.13762637 41.20572973 37.91356133 37.7578125 40.16796875 C38.32586399 44.44097827 39.36620212 47.93145237 41.1328125 51.85546875 C43.19003626 56.64190339 44.73973712 61.32509769 46.0234375 66.3671875 C46.78021949 69.2534252 47.66151516 72.07611476 48.5703125 74.91796875 C51.42601732 84.06945525 53.71631483 93.37646095 56.09545898 102.66064453 C56.66555639 104.81873532 57.28113658 106.95322545 57.92578125 109.08984375 C58.98924355 113.02415499 58.96743586 116.11525037 58.7578125 120.16796875 C57.7578125 121.16796875 57.7578125 121.16796875 54.81640625 121.265625 C53.62144531 121.25402344 52.42648437 121.24242187 51.1953125 121.23046875 C49.39900391 121.21693359 49.39900391 121.21693359 47.56640625 121.203125 C46.17615234 121.18572266 46.17615234 121.18572266 44.7578125 121.16796875 C43.41636675 117.28434512 42.28146218 113.43201071 41.35546875 109.4296875 C41.10474609 108.36169922 40.85402344 107.29371094 40.59570312 106.19335938 C40.08155886 103.98007838 39.56852566 101.76653897 39.05664062 99.55273438 C37.74852284 93.98905182 36.3236626 88.55925982 34.44140625 83.16186523 C33.42563022 80.19906421 32.61307151 77.18041951 31.7578125 74.16796875 C30.74448437 71.04437644 29.70407441 67.9312981 28.6550293 64.81958008 C27.69654168 61.97377211 26.74501046 59.12766401 25.8359375 56.265625 C24.50262155 51.81827571 24.50262155 51.81827571 21.7578125 48.16796875 C17.1537254 48.56596449 10.10575097 49.82003028 6.7578125 53.16796875 C6.66363477 55.25415897 6.64038372 57.34357352 6.64428711 59.43188477 C6.64414108 60.08552002 6.64399506 60.73915527 6.6438446 61.41259766 C6.64454367 63.58239003 6.65233572 65.75209754 6.66015625 67.921875 C6.66202045 69.42260186 6.66344434 70.92332932 6.66444397 72.42405701 C6.66826898 76.38115101 6.6780991 80.33820853 6.68914795 84.29528809 C6.69936244 88.33031724 6.70394167 92.36535228 6.70898438 96.40039062 C6.71972139 104.32293344 6.7367976 112.24544656 6.7578125 120.16796875 C4.44584095 120.36187604 2.1332096 120.54793242 -0.1796875 120.73046875 C-1.46746094 120.83488281 -2.75523437 120.93929687 -4.08203125 121.046875 C-5.64630859 121.10681641 -5.64630859 121.10681641 -7.2421875 121.16796875 C-9.82851606 118.58164019 -8.68935695 111.45347572 -8.796875 108 C-8.83892059 106.68385208 -8.88096619 105.36770416 -8.92428589 104.01167297 C-9.45512338 85.99137793 -9.39313202 67.96114182 -9.37255859 49.93481445 C-9.36674935 44.79259613 -9.37022826 39.65042873 -9.37613106 34.50821209 C-9.37972544 30.5184337 -9.37860524 26.52866767 -9.37600327 22.53888893 C-9.37533661 20.63898525 -9.3761533 18.73908045 -9.37848282 16.83917809 C-9.38100268 14.21786816 -9.37718352 11.59664517 -9.37158203 8.9753418 C-9.37360626 8.19385269 -9.37563049 7.41236359 -9.37771606 6.60719299 C-9.34688417 -1.12181222 -6.94349766 0.00949939 0 0 Z " fill="#6BC27A" transform="translate(292.2421875,44.83203125)"/>
<path d="M0 0 C3.0390625 0.0234375 3.0390625 0.0234375 6.625 0.375 C7.81351562 0.48585937 9.00203125 0.59671875 10.2265625 0.7109375 C11.14179688 0.80632813 12.05703125 0.90171875 13 1 C13.85298376 4.67387495 14.10789471 8.0447393 14.0625 11.8125 C14.05347656 12.78832031 14.04445313 13.76414062 14.03515625 14.76953125 C14.02355469 15.50558594 14.01195312 16.24164063 14 17 C18.53897705 17.02465392 23.07791543 17.04283789 27.61694336 17.05493164 C29.16219766 17.0599714 30.70744716 17.0668032 32.25268555 17.07543945 C34.46925029 17.08752076 36.68575218 17.09323173 38.90234375 17.09765625 C39.94454323 17.10539818 39.94454323 17.10539818 41.00779724 17.11329651 C42.6722933 17.11349277 44.33665499 17.06189129 46 17 C47.92701266 15.07298734 47.35478857 11.57231681 47.5 9 C47.88888889 2.11111111 47.88888889 2.11111111 49 1 C51.16480797 0.9010706 53.33293785 0.870289 55.5 0.875 C56.6859375 0.87242188 57.871875 0.86984375 59.09375 0.8671875 C62 1 62 1 63 2 C63.06390649 4.61977657 63.06522444 7.21674166 63.03125 9.8359375 C62.97878121 17.92808298 63.05968464 26.01086762 63.21875 34.1015625 C63.24107697 35.26263016 63.26340393 36.42369781 63.28640747 37.61994934 C63.33321813 40.04230354 63.38035344 42.46465149 63.42779541 44.88699341 C63.80236648 64.27840807 64.10549165 83.66721366 64.125 103.0625 C64.12749756 103.93779358 64.12999512 104.81308716 64.13256836 105.71490479 C64.13832982 108.13419832 64.13706225 110.55336214 64.1328125 112.97265625 C64.13479645 113.68014511 64.1367804 114.38763397 64.13882446 115.11656189 C64.11548788 119.88451212 64.11548788 119.88451212 63 121 C60.83519203 121.0989294 58.66706215 121.129711 56.5 121.125 C55.3140625 121.12757813 54.128125 121.13015625 52.90625 121.1328125 C50 121 50 121 49 120 C48.90563471 117.76070114 48.88257673 115.5183825 48.88647461 113.27709961 C48.88632858 112.5746965 48.88618256 111.8722934 48.8860321 111.14860535 C48.88673128 108.81648722 48.89452383 106.484448 48.90234375 104.15234375 C48.90420792 102.53951562 48.90563182 100.92668693 48.90663147 99.31385803 C48.91045677 95.06084643 48.92028715 90.80786876 48.93133545 86.55487061 C48.94334388 81.45628308 48.94795175 76.35768422 48.95378876 71.25908661 C48.96349891 63.50603411 48.98265536 55.75305613 49 48 C37.45 48 25.9 48 14 48 C13.93941406 53.18589844 13.87882812 58.37179688 13.81640625 63.71484375 C13.77593244 66.99154519 13.73516974 70.26823788 13.69335938 73.54492188 C13.62695946 78.75086573 13.56165534 83.95680778 13.50268555 89.1628418 C13.45509986 93.3579621 13.40275942 97.55299812 13.34705925 101.74801826 C13.32660934 103.35204545 13.30790071 104.95609577 13.29092598 106.5601635 C13.26694003 108.79922769 13.23687806 111.03813116 13.20532227 113.27709961 C13.18977798 114.55395126 13.1742337 115.83080292 13.15821838 117.14634705 C13 120 13 120 12 121 C9.64686445 121.07271741 7.29166332 121.08370868 4.9375 121.0625 C3.00197266 121.04896484 3.00197266 121.04896484 1.02734375 121.03515625 C0.02832031 121.02355469 -0.97070312 121.01195312 -2 121 C-2.04667715 105.5188843 -2.08196778 90.03777384 -2.10362434 74.55660439 C-2.11394619 67.36876705 -2.1280238 60.18097338 -2.15087891 52.99316406 C-2.17078507 46.72980864 -2.18370983 40.46648483 -2.18817699 34.20309865 C-2.1907891 30.88527891 -2.19798831 27.56757098 -2.21146011 24.24977493 C-2.22589069 20.55008741 -2.22798148 16.85058986 -2.22705078 13.15087891 C-2.23424133 12.04533157 -2.24143188 10.93978424 -2.24884033 9.80073547 C-2.246091 8.79670181 -2.24334167 7.79266815 -2.24050903 6.75820923 C-2.24235262 5.88250589 -2.24419621 5.00680256 -2.24609566 4.10456276 C-2 2 -2 2 0 0 Z " fill="#6BC37A" transform="translate(491,44)"/>
<path d="M0 0 C1.20462891 -0.01836914 1.20462891 -0.01836914 2.43359375 -0.03710938 C6.78725649 -0.04786801 10.1599899 0.15683693 14.125 2.1875 C14.15186553 4.16659398 14.17133375 6.14578971 14.1875 8.125 C14.19910156 9.22714844 14.21070313 10.32929687 14.22265625 11.46484375 C14.125 14.1875 14.125 14.1875 13.125 15.1875 C11.74310111 15.23782542 10.35869058 15.22326682 8.9765625 15.1796875 C7.71585937 15.15455078 7.71585937 15.15455078 6.4296875 15.12890625 C4.65082539 15.08482366 2.87214126 15.03280772 1.09375 14.97265625 C-0.17082031 14.95138672 -0.17082031 14.95138672 -1.4609375 14.9296875 C-2.62181885 14.89657471 -2.62181885 14.89657471 -3.80615234 14.86279297 C-6.43881602 15.2759913 -7.3098706 16.06168069 -8.875 18.1875 C-8.9017714 22.14431345 -8.29155108 23.74266022 -5.57421875 26.64453125 C-4.58035156 27.42183594 -3.58648437 28.19914062 -2.5625 29 C-2.02488037 29.42812988 -1.48726074 29.85625977 -0.93334961 30.29736328 C2.66608989 33.14104112 6.36597584 35.84678691 10.0625 38.5625 C14.60981734 41.93708813 18.88283844 45.50003923 23.0625 49.3125 C23.59415771 49.79122559 24.12581543 50.26995117 24.67358398 50.76318359 C29.58060082 55.32275285 33.95199376 60.34381416 35.875 66.875 C36.09671875 67.60074219 36.3184375 68.32648438 36.546875 69.07421875 C36.73765625 69.77160156 36.9284375 70.46898438 37.125 71.1875 C37.31320312 71.83976562 37.50140625 72.49203125 37.6953125 73.1640625 C38.53701165 77.1277003 38.24982676 81.15737901 38.125 85.1875 C38.09986328 86.34378906 38.09986328 86.34378906 38.07421875 87.5234375 C37.49487469 96.95846927 32.16683282 104.11027209 25.81640625 110.81640625 C15.58659894 119.82873287 5.18117373 121.41790307 -7.875 121.1875 C-8.92171875 121.18492187 -9.9684375 121.18234375 -11.046875 121.1796875 C-17.87507977 120.89035679 -23.02353127 118.62730049 -28.875 115.1875 C-29.62237188 109.20852497 -27.1981898 105.86370279 -23.875 101.1875 C-19.87965792 101.75826315 -17.286827 103.08791415 -13.875 105.1875 C-6.10445358 107.64485229 2.90425221 106.89044759 10.125 103.1875 C16.74779173 98.94514231 20.33925271 93.84389151 22.125 86.1875 C23.09326199 78.94570718 22.3926874 73.17845413 18.125 67.1875 C11.37868486 58.43012686 3.06018364 52.02254174 -6.17578125 46.0546875 C-8.875 44.1875 -8.875 44.1875 -9.875 42.1875 C-11.36 41.6925 -11.36 41.6925 -12.875 41.1875 C-12.875 40.5275 -12.875 39.8675 -12.875 39.1875 C-13.865 38.8575 -14.855 38.5275 -15.875 38.1875 C-15.875 37.5275 -15.875 36.8675 -15.875 36.1875 C-16.865 35.8575 -17.855 35.5275 -18.875 35.1875 C-19.5625 33.125 -19.5625 33.125 -19.875 31.1875 C-20.535 31.1875 -21.195 31.1875 -21.875 31.1875 C-24.99218671 25.08300935 -26.13322476 19.78421446 -24.2890625 13.046875 C-21.8196859 7.11130924 -17.43070117 4.14440173 -11.875 1.1875 C-7.87014647 -0.14745118 -4.19297418 0.00333305 0 0 Z " fill="#6BC37A" transform="translate(441.875,44.8125)"/>
<path d="M0 0 C4.95 0 9.9 0 15 0 C17 4 17 4 17 8 C17.66 8 18.32 8 19 8 C19.24121582 8.56807373 19.48243164 9.13614746 19.73095703 9.72143555 C26.86299822 27.63527746 26.86299822 27.63527746 35.6640625 44.71875 C37 47 37 47 37 49 C37.99 49 38.98 49 40 49 C40.34224609 47.86884766 40.34224609 47.86884766 40.69140625 46.71484375 C42.51183747 41.54699273 44.73166394 36.57576378 46.9375 31.5625 C47.82174411 29.54302546 48.70586175 27.52349554 49.58984375 25.50390625 C51.94570865 20.12330023 51.94570865 20.12330023 52.93212891 17.88305664 C54.6179898 14.01723912 55.95205549 10.14876644 57.15625 6.11328125 C58.18658412 3.53267589 58.95809815 1.92153711 61 0 C64.35546875 -0.390625 64.35546875 -0.390625 68.1875 -0.25 C70.09595703 -0.19585937 70.09595703 -0.19585937 72.04296875 -0.140625 C73.01878906 -0.09421875 73.99460937 -0.0478125 75 0 C76.14868913 2.81161701 76.06728598 3.83628658 74.890625 6.69921875 C74.34921875 7.68535156 73.8078125 8.67148437 73.25 9.6875 C71.33943819 13.18865089 69.75911325 16.5599849 68.55078125 20.3515625 C67.05859955 25.00816484 65.0854841 29.30189413 62.9375 33.6875 C62.14206957 35.34579844 61.34784948 37.00467786 60.5546875 38.6640625 C60.14057617 39.52805664 59.72646484 40.39205078 59.29980469 41.28222656 C57.02874144 46.03081335 54.78137345 50.78929945 52.5625 55.5625 C52.13767334 56.45348389 51.71284668 57.34446777 51.27514648 58.26245117 C50.87626221 59.12588135 50.47737793 59.98931152 50.06640625 60.87890625 C49.5396228 62.00147827 49.5396228 62.00147827 49.00219727 63.14672852 C46.2891351 70.87085945 45.71931332 78.43802009 45.83984375 86.56640625 C45.84504532 87.52651108 45.85024689 88.48661591 45.85560608 89.47581482 C45.87324586 92.50487268 45.90443787 95.5335745 45.9375 98.5625 C45.96511139 101.62352308 45.98976935 104.68450075 46.00868225 107.74559021 C46.0209563 109.64200624 46.0385763 111.53839651 46.06199646 113.43470764 C46.07883989 115.62317118 46.04480734 117.81193038 46 120 C45 121 45 121 42.09375 121.1328125 C40.9078125 121.13023437 39.721875 121.12765625 38.5 121.125 C37.3140625 121.12757813 36.128125 121.13015625 34.90625 121.1328125 C32 121 32 121 31 120 C30.92424149 118.50388787 30.91697048 117.00423597 30.9375 115.50634766 C30.946604 114.54669098 30.95570801 113.5870343 30.96508789 112.59829712 C30.98236938 111.02210098 30.98236938 111.02210098 31 109.4140625 C31.00116083 107.17968742 30.99976913 104.94530986 30.99609375 102.7109375 C30.99172025 99.19561275 30.99914074 95.68293896 31.05126953 92.16796875 C31.2727255 75.85016025 29.32429774 64.09081581 21 50 C20.27025693 48.67632757 19.54643912 47.34936663 18.8293457 46.01879883 C17.87888719 44.25550992 16.92783358 42.49252801 15.96955872 40.73347473 C12.61150686 34.55029068 9.92503912 28.07669357 7.23242188 21.58251953 C5.03082161 16.29115032 2.61950443 11.2381483 -0.15551758 6.2199707 C-1 4 -1 4 0 0 Z " fill="#6BC37A" transform="translate(609,45)"/>
<path d="M0 0 C0.66209473 -0.00095673 1.32418945 -0.00191345 2.00634766 -0.00289917 C3.40852961 -0.00358076 4.8107147 -0.00172792 6.21289062 0.00244141 C8.36595713 0.00779004 10.51881502 0.0024958 12.671875 -0.00390625 C14.03125046 -0.00324546 15.3906258 -0.00196429 16.75 0 C18.61785156 0.00169189 18.61785156 0.00169189 20.5234375 0.00341797 C23.375 0.1328125 23.375 0.1328125 24.375 1.1328125 C24.51855117 5.13501903 24.41716403 9.12722933 24.375 13.1328125 C18.435 13.1328125 12.495 13.1328125 6.375 13.1328125 C6.375 15.4428125 6.375 17.7528125 6.375 20.1328125 C16.605 20.1328125 26.835 20.1328125 37.375 20.1328125 C37.375 24.4228125 37.375 28.7128125 37.375 33.1328125 C27.475 33.4628125 17.575 33.7928125 7.375 34.1328125 C7.045 58.5528125 6.715 82.9728125 6.375 108.1328125 C15.945 108.1328125 25.515 108.1328125 35.375 108.1328125 C35.375 112.4228125 35.375 116.7128125 35.375 121.1328125 C33.45242825 123.05538425 30.59414892 122.26189674 28.03625488 122.27175903 C27.14772827 122.2697348 26.25920166 122.26771057 25.34375 122.265625 C24.43749878 122.26658173 23.53124756 122.26753845 22.59753418 122.26852417 C20.67748953 122.26920603 18.75744259 122.26735132 16.83740234 122.26318359 C13.88764296 122.25783542 10.93803586 122.26312838 7.98828125 122.26953125 C6.12760383 122.26887047 4.2669265 122.26758931 2.40625 122.265625 C1.07346008 122.26866135 1.07346008 122.26866135 -0.28625488 122.27175903 C-6.51005012 122.24776238 -6.51005012 122.24776238 -7.625 121.1328125 C-7.72304865 119.57893087 -7.75131862 118.02059486 -7.75198364 116.46362305 C-7.75480347 115.45399506 -7.75762329 114.44436707 -7.76052856 113.40414429 C-7.75850433 112.28722198 -7.7564801 111.17029968 -7.75439453 110.01953125 C-7.75614685 108.85056305 -7.75789917 107.68159485 -7.75970459 106.47720337 C-7.76336264 103.26240811 -7.76248976 100.04765372 -7.7593255 96.83285904 C-7.75680142 93.47540447 -7.75913958 90.11795272 -7.76071167 86.76049805 C-7.76253322 81.12125149 -7.76012743 75.48201801 -7.75537109 69.84277344 C-7.7499285 63.3143099 -7.75169116 56.78587759 -7.7571975 50.25741482 C-7.76172904 44.66166891 -7.76237898 39.06593243 -7.75975883 33.47018528 C-7.75819628 30.12394766 -7.75800169 26.77772473 -7.76129532 23.43148804 C-7.76382014 19.70300145 -7.75998364 15.97457577 -7.75439453 12.24609375 C-7.75641876 11.12917145 -7.75844299 10.01224915 -7.76052856 8.86148071 C-7.75770874 7.85185272 -7.75488892 6.84222473 -7.75198364 5.80200195 C-7.75160662 4.9193013 -7.75122959 4.03660065 -7.75084114 3.12715149 C-7.46931894 -1.3344315 -3.65533746 0.00331099 0 0 Z " fill="#6BC37A" transform="translate(370.625,43.8671875)"/>
<path d="M0 0 C1.47583955 0.0001591 2.95168467 0.00585225 4.42749023 0.01586914 C5.20293686 0.01728409 5.97838348 0.01869904 6.77732849 0.02015686 C9.26361893 0.02577194 11.74982059 0.03832693 14.23608398 0.05102539 C15.91772331 0.05603845 17.59936405 0.06060169 19.28100586 0.06469727 C23.41189965 0.07574626 27.54272674 0.09302094 31.67358398 0.11352539 C31.67358398 4.07352539 31.67358398 8.03352539 31.67358398 12.11352539 C25.07358398 12.11352539 18.47358398 12.11352539 11.67358398 12.11352539 C11.67358398 14.75352539 11.67358398 17.39352539 11.67358398 20.11352539 C22.89358398 20.11352539 34.11358398 20.11352539 45.67358398 20.11352539 C45.67358398 23.74352539 45.67358398 27.37352539 45.67358398 31.11352539 C42.64765964 34.13944974 33.8782033 33.18519358 29.76342773 33.21118164 C27.71262347 33.20462955 25.66182974 33.19284539 23.61108398 33.17602539 C22.55469727 33.17151367 21.49831055 33.16700195 20.40991211 33.16235352 C17.8310749 33.15068457 15.25236105 33.13431424 12.67358398 33.11352539 C12.50349795 40.38669214 12.34398493 47.66003886 12.19140625 54.93359375 C12.13843335 57.40174462 12.08314669 59.86984706 12.02539062 62.33789062 C11.72251815 75.34560512 11.56645463 88.1420299 12.67358398 101.11352539 C12.8292905 104.38565616 12.90025045 107.65058095 12.92358398 110.92602539 C12.94420898 111.70010742 12.96483398 112.47418945 12.98608398 113.27172852 C13.00170898 115.50805664 13.00170898 115.50805664 12.67358398 119.11352539 C9.17305507 121.44721133 7.67744062 121.35574518 3.54858398 121.30102539 C1.9359668 121.29135742 1.9359668 121.29135742 0.29077148 121.28149414 C-2.32641602 121.11352539 -2.32641602 121.11352539 -3.32641602 120.11352539 C-3.4161346 117.72273002 -3.4413933 115.36107485 -3.42407227 112.97021484 C-3.422612 112.22202484 -3.42115173 111.47383484 -3.41964722 110.70297241 C-3.41582986 109.07038533 -3.40970151 107.43780244 -3.40158081 105.80523109 C-3.38883109 103.20951641 -3.38230312 100.61385285 -3.37744141 98.01811218 C-3.36405353 91.55802809 -3.34008139 85.09799124 -3.31604004 78.63793945 C-3.29615645 73.20037788 -3.28056689 67.76283566 -3.27047729 62.32524681 C-3.26407492 59.78973821 -3.25155711 57.25430947 -3.23876953 54.71882629 C-3.21290621 46.43752403 -3.42363825 38.27370697 -4.09710693 30.01594543 C-4.35875029 26.70426279 -4.45551748 23.41563358 -4.45922852 20.09399414 C-4.46051758 18.97057617 -4.46180664 17.8471582 -4.46313477 16.68969727 C-4.45926758 15.57143555 -4.45540039 14.45317383 -4.45141602 13.30102539 C-4.4552832 12.13249023 -4.45915039 10.96395508 -4.46313477 9.76000977 C-4.4618457 8.65334961 -4.46055664 7.54668945 -4.45922852 6.40649414 C-4.45810059 5.41157959 -4.45697266 4.41666504 -4.45581055 3.39160156 C-4.24856274 -0.25713287 -3.77224294 0.12874077 0 0 Z " fill="#6EC47C" transform="translate(230.326416015625,44.886474609375)"/>
<path d="M0 0 C1.27875 0.00257812 2.5575 0.00515625 3.875 0.0078125 C5.15375 0.00523438 6.4325 0.00265625 7.75 0 C10.875 0.1328125 10.875 0.1328125 11.875 1.1328125 C11.97035213 2.49889576 11.9968867 3.86986705 11.99525452 5.23927307 C11.99662918 6.12413391 11.99800385 7.00899475 11.99942017 7.92066956 C11.99582489 8.89890182 11.99222961 9.87713409 11.98852539 10.88500977 C11.98867142 11.9092807 11.98881744 12.93355164 11.9889679 13.98886108 C11.98826828 17.39233479 11.98047363 20.79575454 11.97265625 24.19921875 C11.97079224 26.55191518 11.96936826 28.904612 11.96836853 31.25730896 C11.96454199 37.46337955 11.95471055 43.6694269 11.94366455 49.87548828 C11.93345334 56.20279628 11.92887154 62.53010802 11.92382812 68.85742188 C11.9130884 81.28256232 11.89601036 93.70768548 11.875 106.1328125 C13.10653809 106.12757568 14.33807617 106.12233887 15.60693359 106.11694336 C20.16535722 106.09887697 24.72377767 106.08737446 29.28222656 106.07788086 C31.25716687 106.0728444 33.23210343 106.06601499 35.20703125 106.05737305 C38.04167605 106.04527742 40.87627166 106.0395774 43.7109375 106.03515625 C44.59743988 106.02999496 45.48394226 106.02483368 46.39730835 106.01951599 C52.64725659 106.01894079 52.64725659 106.01894079 54.875 107.1328125 C54.9022415 108.54937043 54.92150467 109.96608295 54.9375 111.3828125 C54.94910156 112.17171875 54.96070313 112.960625 54.97265625 113.7734375 C54.87856049 116.04679109 54.45851934 117.94411018 53.875 120.1328125 C24.96592694 121.22911219 24.96592694 121.22911219 11.875 121.2578125 C11.04137939 121.26232422 10.20775879 121.26683594 9.34887695 121.27148438 C8.57374756 121.26955078 7.79861816 121.26761719 7 121.265625 C6.34257813 121.26449707 5.68515625 121.26336914 5.0078125 121.26220703 C2.25640574 121.09528332 -0.40995498 120.59870216 -3.125 120.1328125 C-3.25737928 108.89914329 -3.38787576 97.6654538 -3.51615143 86.43173695 C-3.57580931 81.21204899 -3.63604839 75.99236926 -3.69775391 70.77270508 C-4.16727708 30.9778605 -4.16727708 30.9778605 -4.21875 12.76953125 C-4.2252356 11.57463577 -4.23172119 10.3797403 -4.23840332 9.14863586 C-4.23900757 8.08598007 -4.23961182 7.02332428 -4.24023438 5.9284668 C-4.24228882 5.01671188 -4.24434326 4.10495697 -4.24645996 3.16557312 C-4.04568037 -0.19468519 -3.44478053 0.14640317 0 0 Z " fill="#6CC37B" transform="translate(576.125,44.8671875)"/>
<path d="M0 0 C0.99 -0.020625 1.98 -0.04125 3 -0.0625 C8.6143326 -0.09252317 12.49239938 0.17536014 17.25 3.25 C17.54896494 7.06180294 17.67283695 9.51003533 15.75 12.875 C7.57882728 20.63761409 -1.82264816 22.99983687 -12.75 24.25 C-12.9454384 21.35450497 -13.13161395 18.45891002 -13.3125 15.5625 C-13.36857422 14.74587891 -13.42464844 13.92925781 -13.48242188 13.08789062 C-13.97539784 4.97021978 -13.97539784 4.97021978 -12.75 1.25 C-8.91444778 -0.66777611 -4.21919611 0.0216369 0 0 Z " fill="#FBFDFB" transform="translate(310.75,57.75)"/>
<path d="M0 0 C1.08946678 -0.00855011 1.08946678 -0.00855011 2.20094299 -0.01727295 C3.74014829 -0.026735 5.27937395 -0.0332617 6.81860352 -0.03710938 C9.17825486 -0.04682087 11.53703749 -0.07783357 13.89648438 -0.109375 C15.38931772 -0.1159042 16.88215732 -0.121155 18.375 -0.125 C19.08337509 -0.1373468 19.79175018 -0.1496936 20.52159119 -0.16241455 C22.51342773 -0.15332031 22.51342773 -0.15332031 25.75390625 0.203125 C27.90584995 3.43104055 27.95477068 4.48713309 27.75390625 8.203125 C24.7523777 9.70388927 21.66570615 9.34534092 18.375 9.3359375 C17.28409813 9.33737259 17.28409813 9.33737259 16.17115784 9.33883667 C14.63371697 9.33951735 13.09627324 9.33767085 11.55883789 9.33349609 C9.19736325 9.32813851 6.83607814 9.33344877 4.47460938 9.33984375 C2.98307249 9.3391831 1.49153573 9.33790221 0 9.3359375 C-1.06559898 9.33897385 -1.06559898 9.33897385 -2.15272522 9.34207153 C-7.13113661 9.31808214 -7.13113661 9.31808214 -8.24609375 8.203125 C-8.37109375 4.703125 -8.37109375 4.703125 -8.24609375 1.203125 C-6.30451199 -0.73845676 -2.64983766 0.01585233 0 0 Z " fill="#F3FAF4" transform="translate(512.24609375,70.796875)"/>
<path d="M0 0 C1.010625 -0.02578125 2.02125 -0.0515625 3.0625 -0.078125 C6.40147806 0.29484595 8.27035507 1.34326273 11 3.25 C10.66032174 6.42033042 10.00130809 7.24882607 7.5625 9.4375 C3.78321486 12.11065291 1.7406223 12.43228916 -2.875 12.5 C-4.44894531 12.53867188 -4.44894531 12.53867188 -6.0546875 12.578125 C-9.34609596 12.21144289 -10.70799755 11.61328483 -13 9.25 C-13.25 6.0625 -13.25 6.0625 -13 3.25 C-12.34 3.25 -11.68 3.25 -11 3.25 C-11 2.59 -11 1.93 -11 1.25 C-7.29565303 0.40562679 -3.79806243 0.05813361 0 0 Z " fill="#EFF8F1" transform="translate(94,136.75)"/>
<path d="M0 0 C0.66 0.99 1.32 1.98 2 3 C1.41992188 3.74443359 1.41992188 3.74443359 0.828125 4.50390625 C-2.50270951 8.84883147 -5.39257462 13.18629161 -8 18 C-8.66 18 -9.32 18 -10 18 C-8.47146065 13.72813475 -6.28490519 10.00673137 -3.875 6.1875 C-3.50246094 5.59001953 -3.12992188 4.99253906 -2.74609375 4.37695312 C-1.8342952 2.91573749 -0.91764024 1.45755415 0 0 Z " fill="#88CB95" transform="translate(157,88)"/>
<path d="M0 0 C0.103125 0.639375 0.20625 1.27875 0.3125 1.9375 C0.539375 2.618125 0.76625 3.29875 1 4 C1.99 4.33 2.98 4.66 4 5 C2.35 7.97 0.7 10.94 -1 14 C-1.98612849 10.05548603 -1.91655666 8.56813566 -1.0625 4.75 C-0.86785156 3.85796875 -0.67320313 2.9659375 -0.47265625 2.046875 C-0.31667969 1.37140625 -0.16070312 0.6959375 0 0 Z " fill="#DAF0DE" transform="translate(107,44)"/>
<path d="M0 0 C0.66 0.33 1.32 0.66 2 1 C-1.33562767 5.51290803 -3.33289301 7.68206814 -9 9 C-6.31941902 5.42589203 -3.57410797 2.68058098 0 0 Z " fill="#83C890" transform="translate(175,94)"/>
<path d="M0 0 C0.66 1.32 1.32 2.64 2 4 C0.02 6.64 -1.96 9.28 -4 12 C-4.33 11.01 -4.66 10.02 -5 9 C-3.6875 6.5625 -3.6875 6.5625 -2 4 C-1.31903578 2.67391178 -0.64669414 1.34313399 0 0 Z " fill="#D6F0DB" transform="translate(144,64)"/>
<path d="M0 0 C0.66 1.32 1.32 2.64 2 4 C0.38405168 6.04119788 -1.2856382 8.04072937 -3 10 C-3.66 10 -4.32 10 -5 10 C-3.66511872 6.40608886 -2.03977277 3.24509304 0 0 Z " fill="#D8F0DB" transform="translate(168,95)"/>
<path d="M0 0 C0.33 0.66 0.66 1.32 1 2 C0.328125 3.875 0.328125 3.875 -0.75 6 C-1.26820313 7.051875 -1.26820313 7.051875 -1.796875 8.125 C-3 10 -3 10 -6 12 C-4.43358249 7.69235185 -2.31663844 3.93828536 0 0 Z " fill="#D5EFDA" transform="translate(134,33)"/>
<path d="M0 0 C2.25 -0.25 2.25 -0.25 5 0 C7.3125 2 7.3125 2 9 4 C3.46153846 3.38461538 3.46153846 3.38461538 1.125 1.4375 C0.75375 0.963125 0.3825 0.48875 0 0 Z " fill="#96CC9F" transform="translate(75,157)"/>
<path d="M0 0 C3.3 0.33 6.6 0.66 10 1 C10 1.33 10 1.66 10 2 C6.37 2.33 2.74 2.66 -1 3 C-0.67 2.01 -0.34 1.02 0 0 Z " fill="#80C68D" transform="translate(85,135)"/>
<path d="M0 0 C0.66 0 1.32 0 2 0 C2.29296875 6.0546875 2.29296875 6.0546875 2 8 C1.01 8.66 0.02 9.32 -1 10 C-0.67 6.7 -0.34 3.4 0 0 Z " fill="#80C58D" transform="translate(183,103)"/>
<path d="M0 0 C0.33 0 0.66 0 1 0 C1.39253254 4.44870215 0.15305957 7.14243493 -2 11 C-2.95465783 8.83032311 -3.14401212 7.43671207 -2.3984375 5.17578125 C-1.64129615 3.4315257 -0.82390802 1.71372869 0 0 Z " fill="#CAECD1" transform="translate(84,42)"/>
</svg>
